<svg width="8" height="5" viewBox="0 0 8 5" fill="none" xmlns="http://www.w3.org/2000/svg">
<g id="Frame" clip-path="url(#clip0_21_1369)">
<path id="ic_remove_red_eye_24px" d="M4 0C3.13654 0.000471413 2.29322 0.239183 1.5798 0.685069C0.866386 1.13095 0.315905 1.76337 0 2.5C0.315517 3.23686 0.865909 3.86949 1.57942 4.3154C2.29293 4.7613 3.13645 4.99981 4 4.99981C4.86355 4.99981 5.70707 4.7613 6.42058 4.3154C7.13409 3.86949 7.68448 3.23686 8 2.5C7.6841 1.76337 7.13361 1.13095 6.4202 0.685069C5.70678 0.239183 4.86346 0.000471413 4 0ZM4 4.16667C3.6404 4.16667 3.28887 4.06892 2.98987 3.88578C2.69087 3.70265 2.45783 3.44235 2.32022 3.13781C2.18261 2.83326 2.1466 2.49815 2.21675 2.17485C2.28691 1.85155 2.46007 1.55458 2.71435 1.32149C2.96863 1.0884 3.2926 0.929667 3.64529 0.865358C3.99798 0.801049 4.36356 0.834055 4.69579 0.960201C5.02802 1.08635 5.31198 1.29997 5.51176 1.57405C5.71155 1.84813 5.81818 2.17036 5.81818 2.5C5.81818 2.94203 5.62662 3.36595 5.28565 3.67851C4.94467 3.99107 4.48221 4.16667 4 4.16667ZM4 1.5C3.78424 1.5 3.57332 1.55865 3.39392 1.66853C3.21452 1.77841 3.0747 1.93459 2.99213 2.11732C2.90956 2.30004 2.88796 2.50111 2.93005 2.69509C2.97215 2.88907 3.07604 3.06725 3.22861 3.20711C3.38118 3.34696 3.57556 3.4422 3.78717 3.48079C3.99879 3.51937 4.21814 3.49957 4.41747 3.42388C4.61681 3.34819 4.78719 3.22002 4.90706 3.05557C5.02693 2.89112 5.09091 2.69778 5.09091 2.5C5.09091 2.23478 4.97597 1.98043 4.77139 1.79289C4.5668 1.60536 4.28933 1.5 4 1.5Z" fill="#7D7D7D"/>
</g>
<defs>
<clipPath id="clip0_21_1369">
<rect width="8" height="5" fill="white"/>
</clipPath>
</defs>
</svg>
